<svg width="11" height="18" viewBox="0 0 11 18" fill="none" xmlns="http://www.w3.org/2000/svg">
<path d="M0.389409 0.389409C0.140072 0.6388 0 0.977015 0 1.32967C0 1.68232 0.140072 2.02054 0.389409 2.26993L6.97227 8.85279L0.389409 15.4356C0.154781 15.6877 0.02706 16.0209 0.0331207 16.3652C0.0391814 16.7095 0.178551 17.038 0.421905 17.2816C0.665259 17.5252 0.993624 17.665 1.33791 17.6714C1.68219 17.6779 2.01555 17.5505 2.26785 17.3162L9.79201 9.79408C10.0413 9.54469 10.1814 9.20648 10.1814 8.85382C10.1814 8.50117 10.0413 8.16296 9.79201 7.91357L2.26993 0.389409C2.02054 0.140072 1.68232 0 1.32967 0C0.977015 0 0.6388 0.140072 0.389409 0.389409Z" fill="#6E7177"/>
</svg>
